<svg width="28" height="28" viewBox="0 0 28 28" fill="none" xmlns="http://www.w3.org/2000/svg">
<path d="M14 3.3125C19.0381 3.3125 21.5572 3.3125 23.1224 4.87764C24.6875 6.4428 24.6875 8.96187 24.6875 14C24.6875 19.0381 24.6875 21.5572 23.1224 23.1224C21.5572 24.6875 19.0381 24.6875 14 24.6875C8.96191 24.6875 6.44281 24.6875 4.8776 23.1224C3.3125 21.5572 3.3125 19.0381 3.3125 14C3.3125 8.96187 3.3125 6.4428 4.8776 4.87764C6.44281 3.3125 8.96191 3.3125 14 3.3125Z" stroke="white" stroke-width="2"/>
<path d="M18 14.0053L10.0684 14.0053M10.0684 14.0053C10.0635 14.3721 10.3156 14.734 10.6234 15.001L12.6289 16.7892M10.0684 14.0053C10.0731 13.6514 10.3239 13.2929 10.6234 13.0095L12.6289 11.2109" stroke="white" stroke-width="2" stroke-linecap="round"/>
</svg>
