<svg width="28" height="28" viewBox="0 0 28 28" fill="none" xmlns="http://www.w3.org/2000/svg">
<path d="M3.3125 14C3.3125 8.96187 3.3125 6.4428 4.87764 4.87764C6.4428 3.3125 8.96187 3.3125 14 3.3125C19.0381 3.3125 21.5572 3.3125 23.1224 4.87764C24.6875 6.4428 24.6875 8.96187 24.6875 14C24.6875 19.0381 24.6875 21.5572 23.1224 23.1224C21.5572 24.6875 19.0381 24.6875 14 24.6875C8.96187 24.6875 6.4428 24.6875 4.87764 23.1224C3.3125 21.5572 3.3125 19.0381 3.3125 14Z" stroke="black" stroke-width="2"/>
<path d="M14.0026 8.42188L14.0026 16.3535M14.0026 16.3535C14.3694 16.3584 14.7313 16.1063 14.9983 15.7985L16.7865 13.793M14.0026 16.3535C13.6487 16.3488 13.2902 16.098 13.0068 15.7985L11.2082 13.793M9.48438 19.6719L18.4844 19.6719" stroke="black" stroke-width="2" stroke-linecap="round"/>
</svg>
