<svg width="32" height="32" viewBox="0 0 32 32" fill="none" xmlns="http://www.w3.org/2000/svg">
<g clip-path="url(#clip0_124_395)">
<path fill-rule="evenodd" clip-rule="evenodd" d="M14.6698 11.0278C14.4493 11.0833 14.2839 11.3333 14.3253 11.5556C14.3253 11.5972 14.9868 13.6528 15.7999 16.1389C16.8335 19.3333 17.2607 20.6806 17.2883 20.7222C17.3572 20.8472 17.495 20.9306 17.6328 20.9444C17.743 20.9583 20.582 20.9583 20.6784 20.9444C20.83 20.9167 20.9541 20.8333 21.023 20.7083C21.0367 20.6667 21.4226 19.6389 21.8498 18.4028C22.2908 17.1667 22.6492 16.1667 22.6492 16.1528C22.6492 16.1528 22.9937 17.1528 23.4071 18.375C23.8206 19.5972 24.1789 20.6389 24.2064 20.6806C24.2753 20.8194 24.4131 20.9028 24.5647 20.9306C24.675 20.9444 27.5277 20.9444 27.6242 20.9306C27.7758 20.9028 27.9136 20.8056 27.9825 20.6806C28.0238 20.6111 30.0497 14.4583 30.0634 14.3889C30.091 14.1944 29.967 13.9861 29.7878 13.9028L29.7051 13.8611H28.6026C27.5415 13.8611 27.5001 13.8611 27.4312 13.875C27.3348 13.9028 27.2383 13.9722 27.1832 14.0556C27.1556 14.1111 27.004 14.4722 26.6181 15.5C26.3287 16.2639 26.0945 16.875 26.0945 16.875C26.0945 16.875 25.7086 15.625 25.24 14.0833C24.7715 12.5417 24.3856 11.2639 24.358 11.2222C24.3029 11.0972 24.1513 11.0278 24.0135 11C23.9859 11 23.5174 11 22.7043 11C21.3262 11 21.3813 11 21.2573 11.0694C21.1883 11.1111 21.1332 11.1667 21.1057 11.2361C21.0919 11.2639 20.6922 12.5 20.2099 13.9583C19.7275 15.4167 19.3417 16.625 19.3417 16.625C19.3417 16.625 18.9696 15.4306 18.5148 13.9444C18.06 12.4722 17.6741 11.2361 17.6603 11.2083C17.6052 11.0694 17.5165 11 17.3985 11C17.1505 11 16.0204 11 16.0204 11C14.9041 11 14.7112 11.0278 14.6698 11.0278Z" fill="white"/>
<path fill-rule="evenodd" clip-rule="evenodd" d="M1.37094 11.0278C1.15044 11.0694 0.985068 11.2917 0.998849 11.5278C0.998849 11.5833 1.37094 12.7639 2.45966 16.1389C3.25897 18.625 3.92047 20.6944 3.93425 20.7222C3.97559 20.8056 4.05828 20.875 4.14097 20.9306L4.22366 20.9722H5.76715C7.15906 20.9722 7.32443 20.9722 7.37956 20.9722C7.50359 20.9306 7.61384 20.8333 7.66896 20.7222C7.68274 20.6806 9.14355 16.5833 9.26758 16.2361C9.26758 16.2083 9.28136 16.1944 9.29515 16.1944C9.29515 16.1944 9.63968 17.2083 10.0531 18.4444C10.4665 19.6806 10.8249 20.6944 10.8386 20.7222C10.88 20.8056 10.9489 20.875 11.0454 20.9306L11.1281 20.9722C11.1281 20.9722 13.5528 21 14.091 21C14.3666 21 14.4355 20.9306 14.4355 20.9306C14.5045 20.8611 14.532 20.8056 14.5734 20.7222C14.5879 20.693 14.6836 20.375 14.8076 20C15.0281 19.3194 15.0419 19.3056 15.0419 19.1806C15.0419 19.1111 15.0419 19.0417 15.0419 19C15.0144 18.8889 13.9532 15.6667 13.9256 15.6111C13.8843 15.5417 13.8292 15.4861 13.7465 15.4444C13.6914 15.4167 13.6638 15.4167 13.5811 15.4167C13.4984 15.4167 13.4709 15.4167 13.4019 15.4583C13.3193 15.5 13.2504 15.5556 13.209 15.6389C13.1952 15.6667 13.1401 15.7917 13.0988 15.9167C13.0299 16.125 12.7267 16.9167 12.7129 16.9583C12.7129 16.9583 12.6991 16.9444 12.6715 16.875C12.6578 16.8194 12.2719 15.5556 11.8171 14.0556C11.1832 11.9583 10.9902 11.3194 10.9627 11.2778C10.8938 11.1667 10.7835 11.0833 10.6457 11.0556C10.563 11.0417 8.16509 11.0417 8.0824 11.0556C7.94459 11.0833 7.82055 11.1806 7.75165 11.2917C7.73787 11.3333 7.32443 12.5694 6.85587 14.0417C6.38731 15.5139 5.98765 16.7222 5.98765 16.7222C5.98765 16.7222 5.97387 16.6806 5.94631 16.625C5.07809 13.6806 4.36147 11.3333 4.33391 11.2778C4.27878 11.1528 4.14097 11.0417 4.00316 11.0139C3.93425 11.0139 1.43985 11.0139 1.37094 11.0139V11.0278ZM28.6164 11.0278C28.4924 11.0556 28.3821 11.125 28.327 11.2222C28.3132 11.25 28.2168 11.4722 28.1341 11.6944L27.9687 12.1111V12.2222C27.9687 12.3194 27.9687 12.3333 28.01 12.4028C28.079 12.5417 28.203 12.6389 28.3408 12.6667C28.3821 12.6667 28.7267 12.6667 29.4295 12.6667H30.4631L30.5458 12.625C30.6423 12.5833 30.7249 12.4861 30.7663 12.4028C30.8076 12.3194 30.8076 12.2083 30.8076 11.7917C30.8076 11.4306 30.8076 11.3611 30.7525 11.2639C30.6974 11.1389 30.532 11.0139 30.408 11C30.3804 11 29.967 11 29.5122 11C28.8645 11 28.6578 11.0278 28.6164 11.0278Z" fill="#95DC00"/>
</g>
<defs>
<clipPath id="clip0_124_395">
<rect width="30" height="10" fill="white" transform="translate(1 11)"/>
</clipPath>
</defs>
</svg>
