<svg width="266" height="31" viewBox="0 0 266 31" fill="none" xmlns="http://www.w3.org/2000/svg">
<g clip-path="url(#clip0_2794_65096)">
<path d="M10.9382 31C10.3257 31 9.66946 30.6125 9.49446 29.9667L0.13196 1.9375C-0.0867903 1.03333 0.61321 0 1.61946 0H9.45071C10.0632 0 10.7195 0.3875 10.8945 1.07639L16.1445 17.6958L21.7882 1.03333C22.007 0.3875 22.5757 0 23.232 0H30.932C31.632 0 32.2007 0.473611 32.4195 1.07639L37.8007 18.4708L41.1257 9.94583C41.3445 9.3 41.9132 8.9125 42.5695 8.9125H48.9132C49.9632 8.9125 50.6632 9.94583 50.357 10.85L43.8382 29.9236C43.6195 30.5694 43.0507 30.9569 42.3945 30.9569H33.032C32.332 30.9569 31.7632 30.4833 31.5445 29.8806L26.6882 15.9736L21.6132 29.8806C21.3945 30.5264 20.8257 30.9139 20.1695 30.9139H10.8945V31H10.9382Z" fill="#95DC00"/>
<path d="M53.2004 30.9974C52.3254 30.9974 51.7129 30.3085 51.7129 29.5335V10.503C51.7129 9.64184 52.4129 9.03906 53.2004 9.03906H59.4129C60.2879 9.03906 60.9004 9.72795 60.9004 10.503V29.5335C60.9004 30.3946 60.2004 30.9974 59.4129 30.9974H53.2004Z" fill="#95DC00"/>
<path d="M80.6754 9.04306C82.3816 9.04306 83.9566 9.43056 85.3129 10.1194C86.7129 10.8083 87.8066 11.8417 88.5941 13.3056C89.3816 14.7694 89.7754 16.1042 89.7754 18.4292V29.5375C89.7754 30.3986 89.0754 31.0014 88.2879 31.0014H82.0754C81.2004 31.0014 80.5879 30.3125 80.5879 29.5375V19.9792C80.5879 18.6014 80.3691 17.6542 79.8879 17.0514C79.4066 16.4486 78.7066 16.1042 77.9191 16.1042C77.1316 16.1042 76.7379 16.2764 76.2129 16.5778C75.6441 16.7931 75.2504 17.3528 74.9441 18.0417C74.6379 18.6444 74.4629 19.5917 74.4629 20.6681V29.4944C74.4629 30.3556 73.7629 30.9583 72.9754 30.9583H66.7629C65.8879 30.9583 65.2754 30.2694 65.2754 29.4944V10.5069C65.2754 9.64583 65.9754 9.04306 66.7629 9.04306H72.9754C73.8504 9.04306 74.4629 9.73194 74.4629 10.5069V11.5833C75.0316 11.0236 75.5566 10.5931 76.2566 10.2486C77.7441 9.3875 78.9254 9 80.8066 9H80.6316L80.6754 9.04306Z" fill="#95DC00"/>
<path d="M45.8947 0C45.2384 0 44.6259 0.3875 44.4509 0.990278L43.4884 3.27222C43.1822 4.17639 43.8822 5.16667 44.9322 5.16667H59.4134C60.2884 5.16667 60.9447 4.47778 60.9447 3.70278V1.46389C60.9447 0.645833 60.2447 0 59.4134 0H45.8072H45.8947Z" fill="white"/>
<path d="M104.52 30.9139C103.863 30.9139 103.251 30.5264 103.076 29.8806L93.8009 1.9375C93.4947 0.990278 94.1947 0 95.2447 0H103.12C103.82 0 104.388 0.3875 104.563 1.07639L109.813 17.6528L115.37 1.07639C115.588 0.473611 116.157 0.0430556 116.813 0.0430556H124.513C125.213 0.0430556 125.782 0.516667 126.045 1.11944L131.47 18.4708L134.795 9.98889C135.013 9.38611 135.582 8.95556 136.238 8.95556H142.582C143.632 8.95556 144.332 9.98889 144.026 10.8931L137.507 29.8806C137.288 30.4833 136.72 30.9139 136.063 30.9139H126.701C126.001 30.9139 125.432 30.4403 125.17 29.8375L120.313 15.9736L115.238 29.8375C115.02 30.4403 114.451 30.8708 113.795 30.8708H104.432H104.607L104.52 30.9139Z" fill="white"/>
<path d="M146.825 30.9974C145.95 30.9974 145.338 30.3085 145.338 29.5335V10.503C145.338 9.64184 146.038 9.03906 146.825 9.03906H153.038C153.913 9.03906 154.525 9.72795 154.525 10.503V29.5335C154.525 30.3946 153.825 30.9974 153.038 30.9974H146.825Z" fill="white"/>
<path d="M173.863 9.04306C175.569 9.04306 177.144 9.43056 178.5 10.1194C179.9 10.8083 180.994 11.8417 181.782 13.3056C182.569 14.7694 182.963 16.1042 182.963 18.4292V29.5375C182.963 30.3986 182.263 31.0014 181.475 31.0014H175.263C174.388 31.0014 173.775 30.3125 173.775 29.5375V19.9792C173.775 18.6014 173.557 17.6542 173.075 17.0514C172.594 16.4486 171.894 16.1042 171.107 16.1042C170.319 16.1042 169.925 16.2764 169.4 16.5778C168.832 16.7931 168.438 17.3528 168.132 18.0417C167.825 18.6444 167.65 19.5917 167.65 20.6681V29.4944C167.65 30.3556 166.95 30.9583 166.163 30.9583H159.95C159.075 30.9583 158.463 30.2694 158.463 29.4944V10.5069C158.463 9.64583 159.163 9.04306 159.95 9.04306H166.163C167.038 9.04306 167.65 9.73194 167.65 10.5069V11.5833C168.219 11.0236 168.744 10.5931 169.444 10.2486C170.932 9.3875 172.113 9 173.994 9H173.819L173.863 9.04306Z" fill="white"/>
<path d="M139.52 0C138.863 0 138.251 0.3875 138.076 0.990278L137.113 3.27222C136.807 4.17639 137.507 5.16667 138.557 5.16667H153.038C153.913 5.16667 154.57 4.47778 154.57 3.70278V1.46389C154.57 0.645833 153.87 0 153.038 0H139.432H139.52Z" fill="#95DC00"/>
<path d="M197.399 2.36806C197.881 0.947222 199.193 0 200.724 0H262.981C264.468 0 265.518 1.42083 265.037 2.84167L256.287 28.6319C255.806 30.0528 254.493 31 252.962 31H190.706C189.218 31 188.168 29.5792 188.649 28.1583L197.399 2.36806Z" fill="#95DC00"/>
<path d="M240.012 24.109C239.487 24.109 239.137 23.6354 239.312 23.1188L243.294 11.3646H238.962C238.437 11.3646 238.087 10.891 238.262 10.3743L239.269 7.48958C239.4 7.10208 239.75 6.84375 240.144 6.84375H255.281C255.806 6.84375 256.156 7.31736 255.981 7.83403L254.975 10.7187C254.844 11.1062 254.45 11.3646 254.1 11.3646H249.419L245.306 23.4201C245.175 23.8076 244.825 24.066 244.431 24.066H239.969L240.012 24.109Z" fill="black"/>
<path d="M226.799 13.3059H233.931C234.456 13.3059 234.806 13.7795 234.631 14.2962L233.756 16.8365C233.624 17.224 233.231 17.4823 232.881 17.4823H225.399L226.843 13.3059H226.799ZM225.006 19.7212H233.143C233.668 19.7212 234.018 20.1948 233.843 20.7115L232.881 23.467C232.749 23.8545 232.399 24.1128 232.006 24.1128H218.531C218.006 24.1128 217.656 23.6392 217.831 23.1226L223.168 7.53646C223.299 7.14896 223.649 6.89062 224.043 6.89062H237.168C237.693 6.89062 238.043 7.36424 237.868 7.8809L236.906 10.6365C236.774 11.024 236.424 11.2823 236.031 11.2823H227.937L225.049 19.7642L225.006 19.7212Z" fill="black"/>
<path d="M198.32 24.1128C197.795 24.1128 197.445 23.6392 197.62 23.1226L202.957 7.53646C203.088 7.14896 203.438 6.89062 203.832 6.89062H212.845C215.032 6.89062 216.607 7.23507 217.613 7.96701C218.62 8.6559 219.013 9.68924 218.882 10.9809C218.751 12.0573 218.313 12.9615 217.526 13.6934C216.782 14.4253 215.82 14.9851 214.638 15.3726C213.763 15.6309 212.845 15.8031 211.838 15.8892C211.313 15.8892 211.051 15.3726 211.357 14.942C211.488 14.7267 211.751 14.5976 211.97 14.5976C213.632 14.6406 214.901 14.9851 215.82 15.6309C216.826 16.3198 217.22 17.3101 217.045 18.5587C216.87 19.8073 216.345 20.8837 215.47 21.7017C214.595 22.5198 213.501 23.1226 212.145 23.5101C210.788 23.8976 209.345 24.0698 207.813 24.0698H198.276L198.32 24.1128ZM204.751 20.0656H208.732C209.345 20.0656 209.87 19.9365 210.263 19.6781C210.701 19.4198 210.963 19.0323 211.007 18.5156C211.051 18.1281 210.92 17.8698 210.657 17.6976C210.395 17.4823 210.045 17.3962 209.651 17.3962H205.276L206.588 13.5642H210.132C210.613 13.5642 211.007 13.5212 211.313 13.392C211.663 13.2628 211.882 13.0906 212.057 12.8753C212.232 12.6601 212.32 12.3587 212.363 12.0573C212.407 11.7128 212.276 11.4545 212.013 11.2823C211.751 11.1101 211.401 11.024 210.876 11.024H207.857L204.751 20.1087V20.0656Z" fill="black"/>
</g>
<defs>
<clipPath id="clip0_2794_65096">
<rect width="266" height="31" fill="white"/>
</clipPath>
</defs>
</svg>
